<svg id="圖層_1" data-name="圖層 1" xmlns="http://www.w3.org/2000/svg" xmlns:xlink="http://www.w3.org/1999/xlink" viewBox="0 0 135.91 125.68"><defs><style>.cls-1{fill:url(#未命名漸層_811);}.cls-2{fill:url(#未命名漸層_811-2);}.cls-3{fill:url(#未命名漸層_530);}.cls-4{fill:#73bcf0;}.cls-5{fill:#fff;}</style><linearGradient id="未命名漸層_811" x1="62.89" y1="50.18" x2="68.91" y2="50.18" gradientUnits="userSpaceOnUse"><stop offset="0" stop-color="#7dd2f0"/><stop offset="0.25" stop-color="#73bcf0"/><stop offset="0.4" stop-color="#73b6ec"/><stop offset="0.59" stop-color="#72a4e0"/><stop offset="0.81" stop-color="#7088cc"/><stop offset="1" stop-color="#6f6ab7"/></linearGradient><linearGradient id="未命名漸層_811-2" x1="105.24" y1="86.27" x2="105.24" y2="102.7" xlink:href="#未命名漸層_811"/><linearGradient id="未命名漸層_530" x1="23.17" y1="97.97" x2="106.74" y2="40.97" gradientUnits="userSpaceOnUse"><stop offset="0" stop-color="#7dd2f0"/><stop offset="0.56" stop-color="#73bcf0"/><stop offset="0.73" stop-color="#73baee"/><stop offset="0.81" stop-color="#73b2e9"/><stop offset="0.88" stop-color="#72a5e0"/><stop offset="0.93" stop-color="#7193d3"/><stop offset="0.97" stop-color="#707bc3"/><stop offset="1" stop-color="#6f6ab7"/></linearGradient></defs><path class="cls-1" d="M62.89,48.82l2.63,5.57A8,8,0,0,1,68.91,46Z"/><path class="cls-2" d="M97.8,88.92l2.45,13.78s-.17-11.61,12.44-16.43Z"/><path class="cls-3" d="M122.16,68.1a48.54,48.54,0,0,1-1.42,12.49,57.18,57.18,0,0,1-1.9,6.09l-1.26,2.95c-.46,1-1,1.91-1.45,2.87a52.14,52.14,0,0,1-17.41,19A49.38,49.38,0,0,1,87,117.27c-1,.35-2.06.75-3.11,1.07l-3.2.75a47.34,47.34,0,0,1-6.5,1.06,56.63,56.63,0,0,1-37.39-9.77c-.88-.64-1.73-1.33-2.6-2l-1.29-1-.64-.51-.59-.56-2.38-2.26c-.39-.38-.8-.73-1.16-1.14L27,101.68A56.26,56.26,0,0,1,14.89,79a53.16,53.16,0,0,1-.37-25.44A52.08,52.08,0,0,1,25.69,31.2l.8.6a57.53,57.53,0,0,0-5.42,10.81A53.82,53.82,0,0,0,17.82,66,51,51,0,0,0,20.2,77.41,51.61,51.61,0,0,0,32,97.15l1,1.06c.32.36.71.65,1.06,1l2.14,1.91.54.48.58.43,1.16.85c.78.55,1.53,1.15,2.32,1.68A55,55,0,0,0,51,109.65a48.48,48.48,0,0,0,22.45,2.94,42.69,42.69,0,0,0,5.64-.88l2.79-.62c.91-.25,1.81-.58,2.72-.86A47.24,47.24,0,0,0,95,105.55l1.25-.72c.41-.24.79-.53,1.19-.79.78-.55,1.62-1,2.36-1.65l2.28-1.77,2.16-1.92a57.85,57.85,0,0,0,7.64-8.79A59.87,59.87,0,0,0,121.16,68Z"/><path class="cls-4" d="M43.12,59.58c2,7.38,11,19,25.58,24.26,21.35,7.64,27.24,9.85,34.47,7.35-2-7.38-11.87-17-25.58-24.25S50.35,57.08,43.12,59.58Z"/><ellipse class="cls-4" cx="50.85" cy="45.91" rx="4.21" ry="14.94" transform="translate(-5.02 85.55) rotate(-77.44)"/><circle class="cls-5" cx="53.33" cy="63.34" r="1.27"/><circle class="cls-5" cx="42.48" cy="43.46" r="1.27"/></svg>