<svg id="圖層_1" data-name="圖層 1" xmlns="http://www.w3.org/2000/svg" viewBox="0 0 135.91 125.68"><defs><style>.cls-1{fill:#473c34;}.cls-2{fill:#e7c177;}.cls-3{fill:#f2d5a5;}.cls-4{fill:#c66;}.cls-5{fill:#fff;}</style></defs><path class="cls-1" d="M96.88,9.74,83.94,42.51l-1,2.64-.92-1c-3.39-3.45-8.25-6.85-13.8-6.18a2.8,2.8,0,0,0-.3.15L71.21,3.31Z"/><path class="cls-2" d="M67.88,38.15a2.8,2.8,0,0,1,.3-.15c5.55-.67,10.41,2.73,13.8,6.18l.92,1a46.21,46.21,0,0,1,6,7.94A47.81,47.81,0,0,1,94.17,67.5a80.9,80.9,0,0,1,.77,28,42.35,42.35,0,0,1-4,13.84,26.36,26.36,0,0,1-10.89,11.21,13.22,13.22,0,0,1-6,1.8c-3.34.06-6.24-1.67-8.55-3.51C55.11,110.52,51,98.44,49.9,86.71a67.44,67.44,0,0,1,8.76-40.45,23.88,23.88,0,0,1,9.22-8.11"/><path class="cls-2" d="M69.14,40.31l.3-.15-1.26.34c6.26-.65,11.07,4,14.78,8.49a42.6,42.6,0,0,1,8.61,18.3A76.55,76.55,0,0,1,93.1,89.22c-.45,6.62-1.4,13.63-4.62,19.52-2.67,4.86-7.36,9.64-12.92,11-3,.7-5.82-.75-8.12-2.51a34.71,34.71,0,0,1-6.34-6.36c-7.12-9.23-9.29-21.32-9-32.72A65.4,65.4,0,0,1,56.4,56.63a44.58,44.58,0,0,1,5-10,21.12,21.12,0,0,1,7.75-6.34c2.88-1.45.35-5.76-2.52-4.32a26.29,26.29,0,0,0-8.24,6.45A38.39,38.39,0,0,0,52.92,52a70.32,70.32,0,0,0-5.5,21.54c-1.23,13.1.78,27.57,8.48,38.56a40.68,40.68,0,0,0,6.78,7.57c2.66,2.3,5.71,4.45,9.27,5,7.25,1.08,14.21-4.27,18.39-9.71,4.6-6,6.33-13.31,7.26-20.67a83.64,83.64,0,0,0-.43-24.37c-1.28-7.64-3.74-15.15-8.33-21.47-4-5.51-9.48-11.61-16.56-12.79-1.84-.31-3.94-.53-5.66.31a2.53,2.53,0,0,0-.9,3.42,2.56,2.56,0,0,0,3.42.9Z"/><path class="cls-2" d="M59.61,44.44a12.82,12.82,0,0,0-10.07.7A22.78,22.78,0,0,0,42,51.55c-10,12.25-12,28.75-8.2,43.5a42.15,42.15,0,0,0,6.06,13.79,28.53,28.53,0,0,0,12,10,11.77,11.77,0,0,0,5.38,1.14c2.52-.18,5-1.57,7.42-1"/><path class="cls-2" d="M60.27,42c-8-3-15.83,2.32-20.6,8.4a47.38,47.38,0,0,0-9.19,20.12,56.69,56.69,0,0,0,.15,22.1c1.53,7.63,4.55,15.17,9.83,21a29.68,29.68,0,0,0,9.89,7.23,14.48,14.48,0,0,0,7.25,1.52c2-.21,4.33-1.43,6.34-1,3.13.67,4.48-4.15,1.33-4.82a12.07,12.07,0,0,0-5.63.33,9.35,9.35,0,0,1-5,.25,21.71,21.71,0,0,1-8.57-5c-5.13-4.65-8.12-11-9.86-17.59-3.3-12.52-2.11-26.4,4.84-37.51C44.72,51.23,51.23,44,58.94,46.85A2.53,2.53,0,0,0,62,45.1,2.57,2.57,0,0,0,60.27,42Z"/><path class="cls-2" d="M87.93,115.78a21.39,21.39,0,0,0,19.18-5.52c4.42-4.39,6.46-10.54,7.25-16.59a86.74,86.74,0,0,0,.17-16.59c-.42-6.79-1.11-13.76-4.26-19.86a37.28,37.28,0,0,0-5.52-7.74c-2.87-3.18-6.22-6.15-10.37-7.56s-9.2-1-12.35,2"/><path class="cls-2" d="M87.27,118.19a24.16,24.16,0,0,0,21.06-5.63c5.85-5.37,8.09-13.41,8.77-21.07a91.86,91.86,0,0,0,0-13.68,86.84,86.84,0,0,0-1.45-12.67,38,38,0,0,0-12.24-20.58,21.82,21.82,0,0,0-11.53-5.75,14.39,14.39,0,0,0-11.59,3.31c-2.4,2.16,1.14,5.68,3.53,3.54,4.66-4.16,11.68-1.34,15.75,2.17A33.36,33.36,0,0,1,110.45,65a62.38,62.38,0,0,1,1.49,10.8c.28,4,.49,8,.37,12.08-.2,6.52-1.29,13.53-5.36,18.86a18.74,18.74,0,0,1-18.35,6.68,2.57,2.57,0,0,0-3.08,1.75,2.52,2.52,0,0,0,1.75,3.07Z"/><path class="cls-2" d="M39.85,52.71c-6.29-.52-12,3.81-15.6,8.84C17.35,71.21,15.93,84,19.1,95.28a34.21,34.21,0,0,0,9.6,16.36c4.8,4.33,11.47,6.94,18,6.15"/><path class="cls-2" d="M39.85,50.21c-6.52-.44-12.49,3.45-16.44,8.36a38.05,38.05,0,0,0-7.74,17.37c-2.18,12.67,1,27.38,10.36,36.62,5.38,5.31,13.06,8.56,20.67,7.73a2.58,2.58,0,0,0,2.5-2.5,2.51,2.51,0,0,0-2.5-2.5,20.83,20.83,0,0,1-15.62-4.89A30.57,30.57,0,0,1,22,96.17C18.57,85.55,19.43,73.44,25.61,64c3.14-4.8,8.17-9.18,14.24-8.77a2.5,2.5,0,0,0,0-5Z"/><path class="cls-2" d="M108.83,110.12c3.52-.59,7.85-2,10.59-4.13a24,24,0,0,0,5.65-6.27,33,33,0,0,0,5-17.81,47.91,47.91,0,0,0-3.83-18.12A25.87,25.87,0,0,0,121,55.1,34.79,34.79,0,0,0,115.76,51c-3.79-2.63-8-5.38-12.79-5.22"/><path class="cls-2" d="M109.49,112.54c5.8-1,11.22-3.49,15.1-8a33.35,33.35,0,0,0,7.52-16.78,44.56,44.56,0,0,0-1.58-19.33c-1.78-6-4.32-12.32-9.22-16.43a57.79,57.79,0,0,0-8.46-5.87A19.53,19.53,0,0,0,103,43.25c-3.21,0-3.22,5,0,5,5.16-.08,9.77,3.5,13.73,6.43,4.46,3.3,6.73,8.15,8.45,13.29,3.49,10.44,3.61,22.22-2.93,31.53a18.22,18.22,0,0,1-6,5.54,26.05,26.05,0,0,1-8.11,2.67,2.53,2.53,0,0,0-1.74,3.08,2.56,2.56,0,0,0,3.07,1.75Z"/><path class="cls-3" d="M68.31,38.06a5.83,5.83,0,0,1,2.65.1,12.52,12.52,0,0,1,2.17.54A17.94,17.94,0,0,1,77.56,41a34.8,34.8,0,0,1,6.78,6.61,45,45,0,0,1,8.92,19,79,79,0,0,1,1.65,22.12c-.45,7.06-1.45,14.52-4.82,20.85a26.76,26.76,0,0,1-5.44,7.07c-2.43,2.25-5.61,4.48-8.93,5.05-3.53.6-6.81-1.19-9.48-3.31a37.66,37.66,0,0,1-6.47-6.58c-7.4-9.61-9.75-22.22-9.41-34.12a67.39,67.39,0,0,1,4.35-22.05,48.53,48.53,0,0,1,5.18-10.49,23,23,0,0,1,8.42-7.07c.86-.43-.46-.48-.86-.28a25.5,25.5,0,0,0-7.71,5.93,34.86,34.86,0,0,0-5.2,9.06,66.73,66.73,0,0,0-5.38,21.11C48,86.67,50,100.57,57.6,111.22a38.49,38.49,0,0,0,6.8,7.28c2.46,2,5.34,3.79,8.61,4,6.17.33,12.22-4.38,15.83-9,4.5-5.74,6.18-12.88,7-20a81.34,81.34,0,0,0-.48-23.78C94.1,62.22,91.65,55,87.1,48.88,83.28,43.74,78,38.11,71.28,37.42a7.13,7.13,0,0,0-3.83.36c-.86.42.46.48.86.28Z"/><path class="cls-3" d="M60.2,43.91c-6.94-2.59-14,1.64-18.39,6.81a44.62,44.62,0,0,0-9.4,19.22,53.39,53.39,0,0,0-.25,21.22c1.38,7.38,4.11,14.76,9.13,20.45a28,28,0,0,0,9.36,7A13.14,13.14,0,0,0,56.88,120c2.38-.15,4.73-1.49,7.13-1,.37.08,1.64-.5,1.18-.6a9.3,9.3,0,0,0-4.13.17c-2.24.51-4.2,1-6.5.42a24,24,0,0,1-9.28-5.32c-5.37-4.73-8.63-11.25-10.53-18.06-3.58-12.83-2.68-27.14,4-38.81C42.71,50,50.11,41.18,59,44.51c.35.13,1.66-.42,1.18-.6Z"/><path class="cls-3" d="M87.51,116a22.68,22.68,0,0,0,19.08-4.77c5.81-5,8.09-12.68,8.74-20a92.39,92.39,0,0,0,0-13.31,84.49,84.49,0,0,0-1.4-12.5,36,36,0,0,0-12-19.89,19.32,19.32,0,0,0-10.51-5,12.92,12.92,0,0,0-10,3c-.65.58.76.74,1.19.35,5.58-5,13.68-1.6,18.47,2.7a35.31,35.31,0,0,1,11.15,18.14,67.59,67.59,0,0,1,1.45,10.59c.29,4.12.51,8.27.39,12.4-.21,7-1.4,14.38-5.71,20.07a20.22,20.22,0,0,1-20,7.36c-.56-.12-1.71.73-.85.91Z"/><path class="cls-3" d="M40.1,52C27.36,51.1,19.39,65.26,17.42,76c-2.21,12.1.94,26.42,10,35.13a24.28,24.28,0,0,0,19.21,6.92c.8-.09,1.11-1.17.13-1.06a22.68,22.68,0,0,1-16.9-5.5,32.55,32.55,0,0,1-9.51-14.92c-3.59-11-2.77-23.64,3.46-33.53,3.39-5.37,9-10.53,15.78-10.07.71,0,1.48-1,.5-1Z"/><path class="cls-3" d="M109,110.43c5.45-1,10.47-3.16,14.19-7.34a31.27,31.27,0,0,0,7.21-15.85,42.17,42.17,0,0,0-1.52-18.57c-1.7-5.71-4.08-11.66-8.76-15.58a52.46,52.46,0,0,0-8.32-5.68A17.3,17.3,0,0,0,103,45c-.85,0-1.09,1.15-.11,1.13,5.57-.09,10.6,3.7,14.84,6.91,4.76,3.59,7.22,8.73,9.07,14.27,3.63,10.85,3.73,23.35-3.07,33a20.17,20.17,0,0,1-6.56,6.21,27.22,27.22,0,0,1-8.51,2.85c-.93.17-.62,1.23.28,1.07Z"/><path class="cls-1" d="M27.59,66.32c5.07,1.2,11.71,3,16.79,4.3-4.25,3.16-8.72,6.26-13.75,8.1l-.11-.17A44.61,44.61,0,0,1,36,74a62.17,62.17,0,0,1,6-3.7l.2,1.49-7.35-2.58c-2.44-.89-4.89-1.76-7.33-2.68l.06-.19Z"/><path class="cls-1" d="M82.59,68.77c-5.21-.09-12.07-.38-17.32-.59,3.47-4,7.17-8,11.68-10.87l.14.14a44.73,44.73,0,0,1-4.35,5.64A63.91,63.91,0,0,1,67.66,68l-.52-1.42,7.74.94c2.58.34,5.15.66,7.73,1l0,.2Z"/><path class="cls-1" d="M49.65,74.62c-2.82,5.11-14.4,21.53-21,18.88-1.52-.69-2.26-2.35-2.63-3.89-.89-3.37,2.84-5.92,5.87-5a1.35,1.35,0,0,1,.75,2.31c1-2.21-2.09-2-3.29-1.32-2.62,1.14-2.29,3.82-.71,5.68,3.76,4.1,18-13.74,21.06-16.67Z"/><path class="cls-1" d="M60.09,72.25c3.64,2,21.86,15.91,24.5,11,1.08-2.19.74-4.87-2.08-5.33-1.33-.38-4.42.19-2.87,2.08a1.35,1.35,0,0,1,.16-2.42c2.72-1.65,7-.08,6.92,3.4a5.42,5.42,0,0,1-1.6,4.42c-5.78,4.2-21-8.88-25-13.16Z"/><polygon class="cls-4" points="50.1 82.71 59.24 81.38 57.4 96.84 50.1 82.71"/><path class="cls-5" d="M50.06,82.69c2.95-.63,6.72-1.48,9.7-1.82l-.08.57a151.1,151.1,0,0,0-2,16.93,172.84,172.84,0,0,1-7.64-15.68Zm.09,0c2.76,4.68,5.37,9.08,7.65,13.89l-.86.16c.35-2.57.89-5.12,1.22-7.7s.39-5.18.64-7.76l.51.49c-2.57.42-6.52.71-9.16.92Z"/></svg>