<svg id="圖層_1" data-name="圖層 1" xmlns="http://www.w3.org/2000/svg" xmlns:xlink="http://www.w3.org/1999/xlink" viewBox="0 0 135.91 125.68"><defs><style>.cls-1{fill:url(#未命名漸層_808);}.cls-2{fill:url(#未命名漸層_808-2);}.cls-3{fill:url(#未命名漸層_808-3);}.cls-4{fill:url(#未命名漸層_808-4);}.cls-5{fill:url(#未命名漸層_808-5);}.cls-6{fill:url(#未命名漸層_808-6);}.cls-7{fill:url(#未命名漸層_808-7);}.cls-8{fill:url(#未命名漸層_808-8);}.cls-9{fill:url(#未命名漸層_808-9);}.cls-10{fill:url(#未命名漸層_808-10);}</style><linearGradient id="未命名漸層_808" x1="-64.14" y1="401.03" x2="-50.18" y2="401.03" gradientTransform="translate(287.64 -271.21) rotate(27.79)" gradientUnits="userSpaceOnUse"><stop offset="0" stop-color="#226d39"/><stop offset="0.13" stop-color="#348857"/><stop offset="0.48" stop-color="#61cba3"/><stop offset="1" stop-color="#5aae7d"/></linearGradient><linearGradient id="未命名漸層_808-2" x1="42.21" y1="61.26" x2="56.16" y2="61.26" gradientTransform="matrix(1, 0, 0, 1, 0, 0)" xlink:href="#未命名漸層_808"/><linearGradient id="未命名漸層_808-3" x1="1100.15" y1="1098.34" x2="1111.59" y2="1098.34" gradientTransform="translate(1604.86 467.29) rotate(149.48)" xlink:href="#未命名漸層_808"/><linearGradient id="未命名漸層_808-4" x1="747.31" y1="1219.66" x2="758.76" y2="1219.66" gradientTransform="translate(1525.17 80.06) rotate(121.69)" xlink:href="#未命名漸層_808"/><linearGradient id="未命名漸層_808-5" x1="68.03" y1="102.82" x2="76.05" y2="100.77" gradientTransform="matrix(1, 0, 0, 1, 0, 0)" xlink:href="#未命名漸層_808"/><linearGradient id="未命名漸層_808-6" x1="60.75" y1="74.38" x2="68.77" y2="72.33" gradientTransform="matrix(1, 0, 0, 1, 0, 0)" xlink:href="#未命名漸層_808"/><linearGradient id="未命名漸層_808-7" x1="51.21" y1="46.49" x2="71.07" y2="41.54" gradientTransform="matrix(1, 0, 0, 1, 0, 0)" xlink:href="#未命名漸層_808"/><linearGradient id="未命名漸層_808-8" x1="79.56" y1="98.55" x2="91.31" y2="98.55" gradientTransform="matrix(1, 0, 0, 1, 0, 0)" xlink:href="#未命名漸層_808"/><linearGradient id="未命名漸層_808-9" x1="75.76" y1="69.45" x2="87.52" y2="69.45" gradientTransform="matrix(1, 0, 0, 1, 0, 0)" xlink:href="#未命名漸層_808"/><linearGradient id="未命名漸層_808-10" x1="55.25" y1="122.51" x2="108.05" y2="21.46" gradientTransform="matrix(1, 0, 0, 1, 0, 0)" xlink:href="#未命名漸層_808"/></defs><path class="cls-1" d="M54.09,60.16a5.28,5.28,0,0,0,2.07.14,27.16,27.16,0,0,0-3.11-2.89C49.52,54.6,46,53.15,44,53.48,46.92,56.66,51,59.41,54.09,60.16Z"/><path class="cls-2" d="M54.26,62.28a5.1,5.1,0,0,0,1.9-.85,26.64,26.64,0,0,0-4.1-1.1c-4.43-.84-8.23-.48-9.85.75C46.29,62.53,51.15,63.07,54.26,62.28Z"/><path class="cls-3" d="M90.43,84.08a4.35,4.35,0,0,0-1,1.39,22.94,22.94,0,0,0,3.36-.93c3.48-1.26,6-3.09,6.65-4.64C96,80.58,92.3,82.22,90.43,84.08Z"/><path class="cls-4" d="M88.88,83.29A4.18,4.18,0,0,0,88.65,85a22.5,22.5,0,0,0,2.54-2.39c2.49-2.73,3.88-5.54,3.72-7.2C92.14,77.61,89.67,80.77,88.88,83.29Z"/><path class="cls-5" d="M64.63,89.51s7,14.08,6.81,26.62l8-2a59.42,59.42,0,0,1-6.81-26.62Z"/><path class="cls-6" d="M57.35,61.07s7,14.08,6.81,26.62l8-2A59.57,59.57,0,0,1,65.36,59Z"/><path class="cls-7" d="M50.07,32.64s7,14.08,6.81,26.62l8-2a59.42,59.42,0,0,1-6.81-26.62Z"/><path class="cls-8" d="M79.56,85.46s5.21,14.82,3.55,27.25l8.2-1.07a59.45,59.45,0,0,1-3.55-27.25Z"/><path class="cls-9" d="M75.76,56.36S81,71.17,79.32,83.6l8.2-1.07A59.42,59.42,0,0,1,84,55.29Z"/><path class="cls-10" d="M67.57,10.89a48.56,48.56,0,0,1,12.56.34,58.74,58.74,0,0,1,6.23,1.37l3,1c1,.37,2,.8,3,1.2a52.19,52.19,0,0,1,20.42,15.71,49.9,49.9,0,0,1,6.77,11.2c.44,1,.92,2,1.32,3l1,3.13a48.08,48.08,0,0,1,1.62,6.38A56.65,56.65,0,0,1,117,92.32c-.56.94-1.18,1.84-1.77,2.76l-.89,1.37-.45.69-.51.64-2,2.56c-.35.42-.66.87-1,1.26l-1.14,1.17a56.06,56.06,0,0,1-21.6,14.06,53.41,53.41,0,0,1-25.31,2.56,52.2,52.2,0,0,1-23.18-9.21l.52-.85a57.83,57.83,0,0,0,11.24,4.46A53.58,53.58,0,0,0,74.41,115a50.84,50.84,0,0,0,11.19-3.35,51.57,51.57,0,0,0,18.66-13.41l1-1.06c.32-.35.58-.76.88-1.14l1.72-2.3.43-.58.38-.61.74-1.23c.49-.82,1-1.63,1.48-2.46a55.32,55.32,0,0,0,4.21-10.64,48.65,48.65,0,0,0,1-22.62,43.48,43.48,0,0,0-1.36-5.54l-.86-2.73c-.33-.89-.73-1.75-1.1-2.64a46.84,46.84,0,0,0-5.55-10l-.82-1.17c-.28-.39-.6-.75-.9-1.13-.62-.73-1.17-1.52-1.84-2.21l-2-2.12-2.1-2a58.69,58.69,0,0,0-9.41-6.85,59.85,59.85,0,0,0-22.62-7.35Z"/></svg>