<svg id="圖層_1" data-name="圖層 1" xmlns="http://www.w3.org/2000/svg" xmlns:xlink="http://www.w3.org/1999/xlink" viewBox="0 0 135.91 125.68"><defs><style>.cls-1{fill:url(#未命名漸層_309);}.cls-2{fill:#c66;}.cls-3{fill:#fff;}</style><linearGradient id="未命名漸層_309" x1="11.81" y1="66.6" x2="112.97" y2="66.6" gradientUnits="userSpaceOnUse"><stop offset="0" stop-color="#e5897e"/><stop offset="0.56" stop-color="#cc6669"/><stop offset="0.77" stop-color="#ca6669"/><stop offset="0.87" stop-color="#c2676b"/><stop offset="0.94" stop-color="#b5686e"/><stop offset="1" stop-color="#a56a71"/></linearGradient></defs><path class="cls-1" d="M110.41,97.7a48.44,48.44,0,0,1-8.21,9.51,56.55,56.55,0,0,1-5,4l-2.7,1.72c-.92.55-1.87,1-2.82,1.56a52.14,52.14,0,0,1-25.08,5.87,49.47,49.47,0,0,1-13-1.84c-1-.29-2.12-.54-3.17-.87l-3.07-1.18a50.6,50.6,0,0,1-6-2.79A56.68,56.68,0,0,1,16.05,84.51c-.37-1-.68-2.08-1-3.11l-.5-1.56-.24-.78-.18-.8-.69-3.2c-.11-.54-.25-1.06-.32-1.6l-.19-1.63a56.17,56.17,0,0,1,2.77-25.62A53.22,53.22,0,0,1,29.71,25a52,52,0,0,1,21.8-12.14l.32,1a57,57,0,0,0-10.57,5.88,55.62,55.62,0,0,0-8.93,7.9,55.05,55.05,0,0,0-6.91,9.56,52.39,52.39,0,0,0-5.9,33.73l.21,1.42c.07.48.22.94.33,1.4l.69,2.8.17.69.24.68.48,1.36c.33.9.62,1.81,1,2.7a55.48,55.48,0,0,0,5.58,10A48.61,48.61,0,0,0,45.08,107a45.73,45.73,0,0,0,5.15,2.45l2.66,1c.9.31,1.82.55,2.73.83a47.3,47.3,0,0,0,11.26,2l1.44.11c.48,0,1,0,1.43,0,1,0,1.93.06,2.88,0l2.88-.18,2.87-.37a57.84,57.84,0,0,0,11.26-2.95,59.84,59.84,0,0,0,20-12.87Z"/><circle class="cls-2" cx="67.23" cy="39.37" r="13.6"/><circle class="cls-2" cx="68.54" cy="23.43" r="13.6"/><circle class="cls-2" cx="53.79" cy="17.26" r="13.6"/><circle class="cls-2" cx="43.36" cy="29.38" r="13.6"/><circle class="cls-2" cx="51.67" cy="43.05" r="13.6"/><path class="cls-3" d="M70.73,32.71a5.44,5.44,0,0,0,1.9-.85,26.64,26.64,0,0,0-4.1-1.1c-4.43-.84-8.23-.48-9.85.75C62.76,33,67.62,33.5,70.73,32.71Z"/><path class="cls-3" d="M62.58,18.1A5.37,5.37,0,0,0,62.36,16a29.5,29.5,0,0,0-2.31,3.56c-2.17,4-3,7.69-2.33,9.61C60.35,25.76,62.37,21.3,62.58,18.1Z"/><path class="cls-3" d="M46.17,21.33a5.41,5.41,0,0,0-2-.43,27.39,27.39,0,0,0,2.67,3.3c3.1,3.29,6.38,5.23,8.42,5.19C52.77,25.82,49.16,22.52,46.17,21.33Z"/><path class="cls-3" d="M44.17,37.94a5.29,5.29,0,0,0-1,1.81,28,28,0,0,0,4-1.52c4.08-1.93,6.94-4.45,7.53-6.4C50.48,33.05,46.23,35.47,44.17,37.94Z"/><path class="cls-3" d="M59.36,45a5.12,5.12,0,0,0,1.39,1.55,28.24,28.24,0,0,0-.22-4.24c-.57-4.48-2.09-8-3.76-9.14C56.65,37.46,57.64,42.25,59.36,45Z"/><circle class="cls-2" cx="111.7" cy="88.6" r="7.72"/><circle class="cls-2" cx="109.81" cy="79.73" r="7.72"/><circle class="cls-2" cx="100.79" cy="78.78" r="7.72"/><circle class="cls-2" cx="97.09" cy="87.07" r="7.72"/><circle class="cls-2" cx="103.84" cy="93.14" r="7.72"/><path class="cls-3" d="M112.51,84.41a3,3,0,0,0,.9-.77,15.2,15.2,0,0,0-2.41.07c-2.55.27-4.55,1.08-5.23,2A13.14,13.14,0,0,0,112.51,84.41Z"/><path class="cls-3" d="M105.7,77.8a3,3,0,0,0-.45-1.09,15.24,15.24,0,0,0-.68,2.31c-.53,2.51-.38,4.67.3,5.6A13.18,13.18,0,0,0,105.7,77.8Z"/><path class="cls-3" d="M97.31,82.23a3,3,0,0,0-1.18.1,15.08,15.08,0,0,0,2,1.36c2.22,1.28,4.32,1.8,5.42,1.45A13.16,13.16,0,0,0,97.31,82.23Z"/><path class="cls-3" d="M98.93,91.59a2.91,2.91,0,0,0-.27,1.15,15.62,15.62,0,0,0,1.91-1.48c1.9-1.71,3.05-3.55,3.05-4.7A13.09,13.09,0,0,0,98.93,91.59Z"/><path class="cls-3" d="M108.33,92.93a2.9,2.9,0,0,0,1,.62,15.92,15.92,0,0,0-.81-2.27c-1-2.34-2.44-4-3.54-4.36A13.17,13.17,0,0,0,108.33,92.93Z"/><circle class="cls-2" cx="53.81" cy="93.64" r="9"/><circle class="cls-2" cx="62.78" cy="88.02" r="9"/><circle class="cls-2" cx="60.2" cy="77.76" r="9"/><circle class="cls-2" cx="49.64" cy="77.04" r="9"/><circle class="cls-2" cx="45.7" cy="86.86" r="9"/><path class="cls-3" d="M58.73,92.86a3.51,3.51,0,0,0,1.2.67,17.94,17.94,0,0,0-1-2.61c-1.31-2.68-3-4.55-4.3-4.92A15.35,15.35,0,0,0,58.73,92.86Z"/><path class="cls-3" d="M63.24,82.75a3.44,3.44,0,0,0,1-.94,18.22,18.22,0,0,0-2.8.19c-3,.42-5.26,1.45-6,2.57A15.32,15.32,0,0,0,63.24,82.75Z"/><path class="cls-3" d="M55,75.34a3.44,3.44,0,0,0-.58-1.26,19.8,19.8,0,0,0-.69,2.73c-.51,2.94-.24,5.45.59,6.51A15.36,15.36,0,0,0,55,75.34Z"/><path class="cls-3" d="M45.43,80.86a3.46,3.46,0,0,0-1.37.16,16.36,16.36,0,0,0,2.38,1.5c2.64,1.4,5.11,1.92,6.37,1.46A15.29,15.29,0,0,0,45.43,80.86Z"/><path class="cls-3" d="M47.72,91.69A3.61,3.61,0,0,0,47.45,93a17.5,17.5,0,0,0,2.16-1.79C51.76,89.17,53,87,53,85.63A15.31,15.31,0,0,0,47.72,91.69Z"/></svg>