<svg id="圖層_1" data-name="圖層 1" xmlns="http://www.w3.org/2000/svg" viewBox="0 0 135.91 125.68"><defs><style>.cls-1{fill:#6b3511;}.cls-2,.cls-3{fill:none;stroke:#6b3511;stroke-miterlimit:10;}.cls-3{stroke-width:17px;}.cls-4{font-size:13.56px;fill:#fff;font-family:Bauhaus93, "Bauhaus 93";}</style></defs><path class="cls-1" d="M70.19,58.84c.78-.25,2.17.38,2.86.71a10.57,10.57,0,0,1,2.46,1.67,21.87,21.87,0,0,1,4,5,30.64,30.64,0,0,1,4.31,14.4,53.78,53.78,0,0,1-1.17,14.81c-1,4.59-2.36,9.35-5.15,13.2-2.35,3.26-6.42,6.44-10.58,6.71-4.45.28-7.76-4.59-9.66-8C53.16,100,52.93,91,54.5,83a46.18,46.18,0,0,1,5.1-14A33.3,33.3,0,0,1,64,62.67a15.24,15.24,0,0,1,6.21-3.83c1.51-.51.86-2.92-.67-2.41A19,19,0,0,0,63.15,60a25.6,25.6,0,0,0-4.61,5.88,47.66,47.66,0,0,0-5.87,13.77c-2.29,9.09-2.42,19.33,1.85,27.88,2,3.94,5.25,8.72,9.71,10,4.63,1.32,9.87-1.75,13.07-4.89C81,109,82.9,104.19,84.24,99.3a58.41,58.41,0,0,0,2.14-16.79,34.61,34.61,0,0,0-5-17.94,22.16,22.16,0,0,0-5-5.82c-1.67-1.3-4.69-3-6.91-2.32-1.53.48-.87,2.9.67,2.41Z"/><path class="cls-1" d="M64.12,60.06c-5.07-2.74-10.58-.24-14.47,3.31a32.67,32.67,0,0,0-8.36,12.57A38.11,38.11,0,0,0,39,90.86c.22,5.49,1.41,11.18,4.51,15.8a21.37,21.37,0,0,0,6,6,10.16,10.16,0,0,0,4.15,1.67c1.78.23,3.61-.49,5.33.11,1.53.53,2.18-1.88.67-2.41-2.53-.88-5.11.44-7.6-.79a16.72,16.72,0,0,1-5.44-4.52c-3.18-3.93-4.58-9-5-14-.78-8.82,1.45-18.12,7.26-25,3.24-3.82,8.74-8.44,14-5.59,1.42.76,2.68-1.39,1.27-2.16Z"/><path class="cls-1" d="M75.46,114.61a16.19,16.19,0,0,0,14.8-2c4.18-3,6.45-7.92,7.64-12.84a62.79,62.79,0,0,0,1.38-9.05,62.18,62.18,0,0,0,.37-9.25,26.44,26.44,0,0,0-6.18-15.35c-3.51-4.32-9.79-7.55-15-4.16-1.34.87-.09,3,1.27,2.15,4.17-2.69,9,.17,11.76,3.47a23.5,23.5,0,0,1,5.68,13.66A63.81,63.81,0,0,1,96,96.86c-.84,4.53-2.35,9.23-5.73,12.54a13.67,13.67,0,0,1-14.12,2.8c-1.51-.54-2.17,1.87-.66,2.41Z"/><path class="cls-1" d="M49.3,63.64c-9.34-2-16.63,7.59-19.12,15.43-2.69,8.45-1.76,18.88,3.89,26a17.75,17.75,0,0,0,13,6.79c1.61.07,1.61-2.43,0-2.5-8.64-.36-14-8.2-15.37-16-1.34-7.56.41-16,5.42-21.88,2.78-3.29,7-6.32,11.54-5.37,1.57.33,2.24-2.08.66-2.41Z"/><path class="cls-1" d="M90.83,112.88A17.5,17.5,0,0,0,101.92,109a22.69,22.69,0,0,0,6.79-10.47,30.3,30.3,0,0,0,.91-13.42c-.6-4.34-1.7-8.85-4.65-12.22a37.46,37.46,0,0,0-5.08-4.75,13,13,0,0,0-6.2-2.9c-1.57-.22-2.25,2.19-.66,2.41,3.63.5,6.33,3.17,8.85,5.63,3,2.9,4.22,6.4,5,10.42,1.46,7.61.4,16.05-5,21.93a14.82,14.82,0,0,1-11,4.71c-1.61.05-1.61,2.55,0,2.5Z"/><circle class="cls-1" cx="51" cy="82.2" r="7.59"/><circle class="cls-1" cx="75.58" cy="82.2" r="7.59"/><path class="cls-2" d="M58.42,82.45s3.37-5.82,10.9,0"/><circle class="cls-3" cx="68.38" cy="62.84" r="52.39"/><circle class="cls-3" cx="68.38" cy="62.84" r="52.39"/><circle class="cls-3" cx="67.95" cy="63.18" r="52.39"/><text class="cls-4" transform="matrix(1, -0.03, 0.03, 1, 62.36, 15.99)">U</text><text class="cls-4" transform="matrix(0.99, 0.11, -0.11, 0.99, 69.48, 15.69)">N</text><text class="cls-4" transform="translate(76.56 16.33) rotate(16.52)">C</text><text class="cls-4" transform="translate(85.47 19.12) rotate(24.46)">L</text><text class="cls-4" transform="translate(88.95 20.6) rotate(30.25)">E</text><text class="cls-4" transform="matrix(0.82, 0.58, -0.58, 0.82, 93.95, 23.56)"> </text><text class="cls-4" transform="matrix(0.75, 0.66, -0.66, 0.75, 96.18, 24.97)">P</text><text class="cls-4" transform="matrix(0.65, 0.76, -0.76, 0.65, 101.35, 29.38)">U</text><text class="cls-4" transform="translate(106.11 34.61) rotate(59.75)">M</text><text class="cls-4" transform="translate(111.13 43.35) rotate(69.93)">P</text><text class="cls-4" transform="translate(113.56 49.67) rotate(78.84)">K</text><text class="cls-4" transform="translate(115.02 57.48) rotate(85.87)">I</text><text class="cls-4" transform="translate(115.43 61.17) rotate(92.36)">N</text><path class="cls-1" d="M92.82,40.94,80.52,62.29l-1,1.72L79,63.25c-2-2.74-5-5.59-8.92-5.69l-.22.07,5.87-23.77Z"/></svg>